name Walk8.mot
datacolumns 19
datarows 27
range 3.81800000 3.84400000
endheader

                time	   L_ground_force_vx	   L_ground_force_vy	   L_ground_force_vz	   L_ground_force_px	   L_ground_force_py	   L_ground_force_pz	   R_ground_force_vx	   R_ground_force_vy	   R_ground_force_vz	   R_ground_force_px	   R_ground_force_py	   R_ground_force_pz	   L_ground_torque_x	   L_ground_torque_y	   L_ground_torque_z	   R_ground_torque_x	   R_ground_torque_y	   R_ground_torque_z	
          3.81800000	          0.06981420	          0.19971796	         -0.00651264	         -0.00026247	          0.00000000	         -0.00010344	        -19.49211973	        696.02988147	        -41.50885560	          0.25045761	          0.00000000	          0.05100806	          0.00000000	          0.00089165	          0.00000000	          0.00000000	          6.41590345	          0.00000000	
          3.81900000	          0.06717480	          0.18993676	         -0.00643341	         -0.00026084	          0.00000000	         -0.00010314	        -19.07666489	        695.13776995	        -41.36902200	          0.25047714	          0.00000000	          0.05093239	          0.00000000	          0.00086292	          0.00000000	          0.00000000	          6.33482507	          0.00000000	
          3.82000000	          0.06450598	          0.18026948	         -0.00633661	         -0.00025836	          0.00000000	         -0.00010248	        -18.66384582	        694.25236774	        -41.23071795	          0.25049890	          0.00000000	          0.05085790	          0.00000000	          0.00083338	          0.00000000	          0.00000000	          6.25405110	          0.00000000	
          3.82100000	          0.06182033	          0.17074294	         -0.00622409	         -0.00025512	          0.00000000	         -0.00010148	        -18.25376587	        693.37350966	        -41.09431708	          0.25052299	          0.00000000	          0.05078466	          0.00000000	          0.00080320	          0.00000000	          0.00000000	          6.17364024	          0.00000000	
          3.82200000	          0.05912941	          0.16138120	         -0.00609762	         -0.00025118	          0.00000000	         -0.00010019	        -17.84652537	        692.50103710	        -40.96017837	          0.25054954	          0.00000000	          0.05071273	          0.00000000	          0.00077255	          0.00000000	          0.00000000	          6.09364929	          0.00000000	
          3.82300000	          0.05644385	          0.15220561	         -0.00595886	         -0.00024663	          0.00000000	         -0.00009863	        -17.44222111	        691.63479884	        -40.82864499	          0.25057866	          0.00000000	          0.05064218	          0.00000000	          0.00074159	          0.00000000	          0.00000000	          6.01413284	          0.00000000	
          3.82400000	          0.05377334	          0.14323501	         -0.00580938	         -0.00024154	          0.00000000	         -0.00009683	        -17.04094570	        690.77465133	        -40.70004304	          0.25061045	          0.00000000	          0.05057308	          0.00000000	          0.00071045	          0.00000000	          0.00000000	          5.93514299	          0.00000000	
          3.82500000	          0.05112668	          0.13448588	         -0.00565066	         -0.00023597	          0.00000000	         -0.00009482	        -16.64278687	        689.92045872	        -40.57468035	          0.25064502	          0.00000000	          0.05050548	          0.00000000	          0.00067928	          0.00000000	          0.00000000	          5.85672915	          0.00000000	
          3.82600000	          0.04851187	          0.12597245	         -0.00548408	         -0.00022998	          0.00000000	         -0.00009261	        -16.24782687	        689.07209261	        -40.45284514	          0.25068244	          0.00000000	          0.05043944	          0.00000000	          0.00064820	          0.00000000	          0.00000000	          5.77893792	          0.00000000	
          3.82700000	          0.04593606	          0.11770685	         -0.00531094	         -0.00022363	          0.00000000	         -0.00009025	        -15.85614192	        688.22943196	        -40.33480491	          0.25072282	          0.00000000	          0.05037503	          0.00000000	          0.00061730	          0.00000000	          0.00000000	          5.70181297	          0.00000000	
          3.82800000	          0.04340567	          0.10969923	         -0.00513245	         -0.00021697	          0.00000000	         -0.00008775	        -15.46780185	        687.39236327	        -40.22080554	          0.25076622	          0.00000000	          0.05031231	          0.00000000	          0.00058670	          0.00000000	          0.00000000	          5.62539506	          0.00000000	
          3.82900000	          0.04092641	          0.10195793	         -0.00494975	         -0.00021006	          0.00000000	         -0.00008512	        -15.08286976	        686.56078119	        -40.11107061	          0.25081274	          0.00000000	          0.05025132	          0.00000000	          0.00055649	          0.00000000	          0.00000000	          5.54972183	          0.00000000	
          3.83000000	          0.03850330	          0.09448955	         -0.00476387	         -0.00020295	          0.00000000	         -0.00008240	        -14.70140172	        685.73458955	        -40.00580073	          0.25086243	          0.00000000	          0.05019211	          0.00000000	          0.00052674	          0.00000000	          0.00000000	          5.47482765	          0.00000000	
          3.83100000	          0.03614071	          0.08729910	         -0.00457580	         -0.00019567	          0.00000000	         -0.00007960	        -14.32344652	        684.91370298	        -39.90517297	          0.25091536	          0.00000000	          0.05013473	          0.00000000	          0.00049753	          0.00000000	          0.00000000	          5.40074329	          0.00000000	
          3.83200000	          0.03384243	          0.08039014	         -0.00438643	         -0.00018827	          0.00000000	         -0.00007674	        -13.94904558	        684.09804928	        -39.80934028	          0.25097160	          0.00000000	          0.05007923	          0.00000000	          0.00046892	          0.00000000	          0.00000000	          5.32749573	          0.00000000	
          3.83300000	          0.03161168	          0.07376483	         -0.00419658	         -0.00018079	          0.00000000	         -0.00007383	        -13.57823292	        683.28757212	        -39.71843125	          0.25103120	          0.00000000	          0.05002564	          0.00000000	          0.00044098	          0.00000000	          0.00000000	          5.25510809	          0.00000000	
          3.83400000	          0.02945114	          0.06742409	         -0.00400702	         -0.00017326	          0.00000000	         -0.00007089	        -13.21103515	        682.48223364	        -39.63255026	          0.25109423	          0.00000000	          0.04997400	          0.00000000	          0.00041374	          0.00000000	          0.00000000	          5.18359973	          0.00000000	
          3.83500000	          0.02736302	          0.06136769	         -0.00381843	         -0.00016572	          0.00000000	         -0.00006793	        -12.84747144	        681.68201598	        -39.55177804	          0.25116072	          0.00000000	          0.04992434	          0.00000000	          0.00038726	          0.00000000	          0.00000000	          5.11298650	          0.00000000	
          3.83600000	          0.02534903	          0.05559433	         -0.00363145	         -0.00015819	          0.00000000	         -0.00006496	        -12.48755331	        680.88692148	        -39.47617242	          0.25123074	          0.00000000	          0.04987668	          0.00000000	          0.00036156	          0.00000000	          0.00000000	          5.04328079	          0.00000000	
          3.83700000	          0.02341050	          0.05010177	         -0.00344664	         -0.00015071	          0.00000000	         -0.00006201	        -12.13128445	        680.09697112	        -39.40576907	          0.25130430	          0.00000000	          0.04983106	          0.00000000	          0.00033669	          0.00000000	          0.00000000	          4.97449158	          0.00000000	
          3.83800000	          0.02154832	          0.04488689	         -0.00326452	         -0.00014329	          0.00000000	         -0.00005906	        -11.77866050	        679.31220177	        -39.34058218	          0.25138145	          0.00000000	          0.04978749	          0.00000000	          0.00031265	          0.00000000	          0.00000000	          4.90662441	          0.00000000	
          3.83900000	          0.01976305	          0.03994578	         -0.00308555	         -0.00013596	          0.00000000	         -0.00005615	        -11.42966883	        678.53266282	        -39.28060473	          0.25146219	          0.00000000	          0.04974598	          0.00000000	          0.00028948	          0.00000000	          0.00000000	          4.83968135	          0.00000000	
          3.84000000	          0.01805489	          0.03527384	         -0.00291014	         -0.00012874	          0.00000000	         -0.00005327	        -11.08428844	        677.75841331	        -39.22580862	          0.25154654	          0.00000000	          0.04970653	          0.00000000	          0.00026718	          0.00000000	          0.00000000	          4.77366100	          0.00000000	
          3.84100000	          0.01642374	          0.03086584	         -0.00273865	         -0.00012165	          0.00000000	         -0.00005044	        -10.74249007	        676.98952011	        -39.17614452	          0.25163451	          0.00000000	          0.04966915	          0.00000000	          0.00024577	          0.00000000	          0.00000000	          4.70855866	          0.00000000	
          3.84200000	          0.01486921	          0.02671598	         -0.00257139	         -0.00011470	          0.00000000	         -0.00004765	        -10.40423647	        676.22605761	        -39.13154197	          0.25172609	          0.00000000	          0.04963384	          0.00000000	          0.00022526	          0.00000000	          0.00000000	          4.64436648	          0.00000000	
          3.84300000	          0.01339067	          0.02281802	         -0.00240863	         -0.00010791	          0.00000000	         -0.00004492	        -10.06948302	        675.46810833	        -39.09190980	          0.25182126	          0.00000000	          0.04960059	          0.00000000	          0.00020563	          0.00000000	          0.00000000	          4.58107373	          0.00000000	
          3.84400000	          0.01198724	          0.01916525	         -0.00225061	         -0.00010128	          0.00000000	         -0.00004226	         -9.73817861	        674.71576419	        -39.05713708	          0.25192003	          0.00000000	          0.04956939	          0.00000000	          0.00018690	          0.00000000	          0.00000000	          4.51866708	          0.00000000	
